<mxfile host="app.diagrams.net" modified="2022-07-19T18:34:41.342Z" agent="5.0 (Windows NT 10.0; Win64; x64) AppleWebKit/537.36 (KHTML, like Gecko) Chrome/103.0.0.0 Safari/537.36" etag="Fyr2N_lwhPwulgl85wEt" version="20.1.1" type="github">
  <diagram id="C5RBs43oDa-KdzZeNtuy" name="Page-1">
    <mxGraphModel dx="868" dy="482" grid="1" gridSize="10" guides="1" tooltips="1" connect="1" arrows="1" fold="1" page="1" pageScale="1" pageWidth="827" pageHeight="1169" math="0" shadow="0">
      <root>
        <mxCell id="WIyWlLk6GJQsqaUBKTNV-0" />
        <mxCell id="WIyWlLk6GJQsqaUBKTNV-1" parent="WIyWlLk6GJQsqaUBKTNV-0" />
        <mxCell id="V4dSn1yUWXBajm0PAFUP-18" style="edgeStyle=orthogonalEdgeStyle;rounded=0;orthogonalLoop=1;jettySize=auto;html=1;exitX=0.5;exitY=0;exitDx=0;exitDy=0;dashed=1;strokeColor=default;" edge="1" parent="WIyWlLk6GJQsqaUBKTNV-1" target="V4dSn1yUWXBajm0PAFUP-15">
          <mxGeometry relative="1" as="geometry">
            <mxPoint x="430" y="150" as="sourcePoint" />
          </mxGeometry>
        </mxCell>
        <mxCell id="V4dSn1yUWXBajm0PAFUP-8" value="" style="edgeStyle=orthogonalEdgeStyle;rounded=0;orthogonalLoop=1;jettySize=auto;html=1;" edge="1" parent="WIyWlLk6GJQsqaUBKTNV-1" source="V4dSn1yUWXBajm0PAFUP-2" target="V4dSn1yUWXBajm0PAFUP-19">
          <mxGeometry relative="1" as="geometry">
            <mxPoint x="640" y="300" as="targetPoint" />
          </mxGeometry>
        </mxCell>
        <mxCell id="V4dSn1yUWXBajm0PAFUP-17" style="edgeStyle=orthogonalEdgeStyle;rounded=0;orthogonalLoop=1;jettySize=auto;html=1;entryX=1;entryY=0.5;entryDx=0;entryDy=0;dashed=1;strokeColor=default;" edge="1" parent="WIyWlLk6GJQsqaUBKTNV-1" source="V4dSn1yUWXBajm0PAFUP-2" target="V4dSn1yUWXBajm0PAFUP-15">
          <mxGeometry relative="1" as="geometry" />
        </mxCell>
        <mxCell id="V4dSn1yUWXBajm0PAFUP-2" value="Camada de Integração&lt;br&gt;SYSPDVWEB" style="rounded=0;whiteSpace=wrap;html=1;" vertex="1" parent="WIyWlLk6GJQsqaUBKTNV-1">
          <mxGeometry x="580" y="160" width="120" height="60" as="geometry" />
        </mxCell>
        <mxCell id="V4dSn1yUWXBajm0PAFUP-10" style="edgeStyle=orthogonalEdgeStyle;rounded=0;orthogonalLoop=1;jettySize=auto;html=1;dashed=1;" edge="1" parent="WIyWlLk6GJQsqaUBKTNV-1" source="V4dSn1yUWXBajm0PAFUP-9">
          <mxGeometry relative="1" as="geometry">
            <mxPoint x="430" y="150" as="targetPoint" />
          </mxGeometry>
        </mxCell>
        <mxCell id="V4dSn1yUWXBajm0PAFUP-9" value="GUI executado&lt;br&gt;pelo Danilão" style="shape=note;whiteSpace=wrap;html=1;backgroundOutline=1;darkOpacity=0.05;" vertex="1" parent="WIyWlLk6GJQsqaUBKTNV-1">
          <mxGeometry x="510" width="90" height="90" as="geometry" />
        </mxCell>
        <mxCell id="V4dSn1yUWXBajm0PAFUP-14" style="edgeStyle=orthogonalEdgeStyle;orthogonalLoop=1;jettySize=auto;html=1;rounded=0;strokeColor=default;dashed=1;" edge="1" parent="WIyWlLk6GJQsqaUBKTNV-1" source="V4dSn1yUWXBajm0PAFUP-11" target="V4dSn1yUWXBajm0PAFUP-13">
          <mxGeometry relative="1" as="geometry" />
        </mxCell>
        <mxCell id="V4dSn1yUWXBajm0PAFUP-11" value="Títulko na Base do&lt;br&gt;SYSPDV" style="shape=note;whiteSpace=wrap;html=1;backgroundOutline=1;darkOpacity=0.05;" vertex="1" parent="WIyWlLk6GJQsqaUBKTNV-1">
          <mxGeometry x="60" y="10" width="80" height="100" as="geometry" />
        </mxCell>
        <mxCell id="V4dSn1yUWXBajm0PAFUP-13" value="PDV" style="shape=cylinder3;whiteSpace=wrap;html=1;boundedLbl=1;backgroundOutline=1;size=15;" vertex="1" parent="WIyWlLk6GJQsqaUBKTNV-1">
          <mxGeometry x="200" y="150" width="60" height="80" as="geometry" />
        </mxCell>
        <mxCell id="V4dSn1yUWXBajm0PAFUP-16" style="edgeStyle=orthogonalEdgeStyle;rounded=0;orthogonalLoop=1;jettySize=auto;html=1;entryX=1;entryY=0.5;entryDx=0;entryDy=0;entryPerimeter=0;dashed=1;strokeColor=default;" edge="1" parent="WIyWlLk6GJQsqaUBKTNV-1" source="V4dSn1yUWXBajm0PAFUP-15" target="V4dSn1yUWXBajm0PAFUP-13">
          <mxGeometry relative="1" as="geometry" />
        </mxCell>
        <mxCell id="V4dSn1yUWXBajm0PAFUP-15" value="Processar Título" style="shape=process;whiteSpace=wrap;html=1;backgroundOutline=1;" vertex="1" parent="WIyWlLk6GJQsqaUBKTNV-1">
          <mxGeometry x="360" y="150" width="140" height="80" as="geometry" />
        </mxCell>
        <mxCell id="V4dSn1yUWXBajm0PAFUP-22" value="" style="edgeStyle=orthogonalEdgeStyle;rounded=0;orthogonalLoop=1;jettySize=auto;html=1;dashed=1;strokeColor=default;" edge="1" parent="WIyWlLk6GJQsqaUBKTNV-1" source="V4dSn1yUWXBajm0PAFUP-19" target="V4dSn1yUWXBajm0PAFUP-21">
          <mxGeometry relative="1" as="geometry" />
        </mxCell>
        <mxCell id="V4dSn1yUWXBajm0PAFUP-19" value="SOA" style="shape=process;whiteSpace=wrap;html=1;backgroundOutline=1;" vertex="1" parent="WIyWlLk6GJQsqaUBKTNV-1">
          <mxGeometry x="580" y="300" width="120" height="60" as="geometry" />
        </mxCell>
        <mxCell id="V4dSn1yUWXBajm0PAFUP-21" value="EBS" style="whiteSpace=wrap;html=1;" vertex="1" parent="WIyWlLk6GJQsqaUBKTNV-1">
          <mxGeometry x="370" y="300" width="120" height="60" as="geometry" />
        </mxCell>
      </root>
    </mxGraphModel>
  </diagram>
</mxfile>
